<?xml version="1.0" standalone="no"?>
<!DOCTYPE svg PUBLIC "-//W3C//DTD SVG 20010904//EN"
 "http://www.w3.org/TR/2001/REC-SVG-20010904/DTD/svg10.dtd">
<svg version="1.0" xmlns="http://www.w3.org/2000/svg"
 width="16.000000pt" height="16.000000pt" viewBox="0 0 16.000000 16.000000"
 preserveAspectRatio="xMidYMid meet">

<g transform="translate(0.000000,16.000000) scale(0.100000,-0.100000)"
fill="#000000" stroke="none">
<path d="M0 80 l0 -80 80 0 80 0 0 80 0 80 -80 0 -80 0 0 -80z m70 38 c0 -21
-3 -29 -10 -22 -5 5 -7 19 -4 32 9 31 14 27 14 -10z m55 2 c0 -16 -4 -30 -10
-30 -5 0 -10 14 -10 30 0 17 5 30 10 30 6 0 10 -13 10 -30z m-82 13 c3 -5 -1
-14 -9 -21 -12 -11 -14 -9 -14 8 0 20 14 27 23 13z m44 -65 c-3 -7 -5 -2 -5
12 0 14 2 19 5 13 2 -7 2 -19 0 -25z m-23 -7 c3 -5 -2 -8 -12 -7 -9 0 -17 -6
-17 -14 0 -9 8 -14 19 -13 13 1 15 -2 7 -10 -15 -15 -44 14 -35 36 7 18 29 23
38 8z m62 2 c-15 -4 -16 -7 -5 -14 10 -6 10 -9 2 -9 -19 0 -16 -18 5 -23 13
-4 11 -5 -5 -6 -19 -1 -23 4 -23 29 0 25 4 30 23 29 19 -1 19 -2 3 -6z"/>
</g>
</svg>
