<?xml version="1.0" standalone="no"?>
<!DOCTYPE svg PUBLIC "-//W3C//DTD SVG 20010904//EN"
 "http://www.w3.org/TR/2001/REC-SVG-20010904/DTD/svg10.dtd">
<svg version="1.0" xmlns="http://www.w3.org/2000/svg"
 width="32.000000pt" height="32.000000pt" viewBox="0 0 32.000000 32.000000"
 preserveAspectRatio="xMidYMid meet">

<g transform="translate(0.000000,32.000000) scale(0.100000,-0.100000)"
fill="#000000" stroke="none">
<path d="M0 160 l0 -160 160 0 160 0 0 160 0 160 -160 0 -160 0 0 -160z m94
98 l26 -33 0 33 c0 17 5 32 10 32 6 0 10 -22 10 -50 0 -27 -4 -50 -9 -50 -5 0
-21 15 -35 33 l-26 32 0 -32 c0 -18 -4 -33 -10 -33 -5 0 -10 23 -10 50 0 28 4
50 9 50 5 0 21 -15 35 -32z m169 25 c-17 -6 -17 -80 0 -86 6 -3 -6 -5 -28 -5
-22 0 -32 2 -22 5 24 6 24 80 0 86 -10 3 0 5 22 5 22 0 34 -2 28 -5z m-77
-113 c8 0 14 -4 14 -10 0 -5 -7 -10 -15 -10 -10 0 -15 -12 -17 -37 l-1 -38 -4
34 c-3 19 -12 41 -21 48 -16 11 -16 12 1 13 13 0 17 9 19 43 l1 42 4 -42 c3
-29 9 -43 19 -43z m-51 -50 c21 -23 14 -26 -15 -8 -26 17 -55 0 -55 -32 0 -32
29 -49 55 -32 30 19 38 14 11 -8 -13 -11 -29 -20 -36 -20 -41 0 -63 88 -27
109 26 16 47 13 67 -9z m113 3 c-47 -5 -54 -33 -8 -33 17 0 30 -4 30 -10 0 -5
-13 -10 -30 -10 -46 0 -39 -28 8 -33 34 -3 33 -4 -10 -5 l-48 -2 0 50 0 50 48
-2 c43 -1 44 -2 10 -5z"/>
</g>
</svg>
